<svg width="400" height="400" viewBox="0 0 400 400" xmlns="http://www.w3.org/2000/svg">
  <rect width="400" height="400" fill="#EDEAE0"/>

  <g stroke="#111111" stroke-width="1" opacity="0.14">
    <line x1="0" y1="0" x2="400" y2="0"/>
    <line x1="0" y1="100" x2="400" y2="100"/>
    <line x1="0" y1="200" x2="400" y2="200"/>
    <line x1="0" y1="300" x2="400" y2="300"/>
    <line x1="0" y1="0" x2="0" y2="400"/>
    <line x1="100" y1="0" x2="100" y2="400"/>
    <line x1="200" y1="0" x2="200" y2="400"/>
    <line x1="300" y1="0" x2="300" y2="400"/>
  </g>

  <g stroke="#111111" stroke-width="10" opacity="0.05">
    <line x1="-50" y1="450" x2="450" y2="-50"/>
  </g>

  <g stroke="#FF4D00" stroke-width="3">
    <line x1="88" y1="100" x2="112" y2="100"/>
    <line x1="100" y1="88" x2="100" y2="112"/>
  </g>
  <g stroke="#FF4D00" stroke-width="3">
    <line x1="288" y1="300" x2="312" y2="300"/>
    <line x1="300" y1="288" x2="300" y2="312"/>
  </g>
  <g stroke="#FF4D00" stroke-width="2">
    <line x1="0" y1="200" x2="16" y2="200"/>
    <line x1="8" y1="192" x2="8" y2="208"/>
  </g>

  <rect x="40" y="240" width="34" height="34" fill="none" stroke="#0047FF" stroke-width="2"/>
  <rect x="320" y="50" width="26" height="26" fill="none" stroke="#0047FF" stroke-width="2"/>
  <rect x="180" y="330" width="18" height="18" fill="none" stroke="#0047FF" stroke-width="2"/>

  <circle cx="150" cy="330" r="4" fill="#D4FF3F"/>
  <circle cx="362" cy="185" r="4" fill="#D4FF3F"/>
  <circle cx="60" cy="55" r="4" fill="#D4FF3F"/>
  <circle cx="250" cy="70" r="4" fill="#D4FF3F"/>

  <g stroke="#111111" stroke-width="2" opacity="0.5">
    <line x1="180" y1="0" x2="200" y2="20"/>
    <line x1="200" y1="0" x2="180" y2="20"/>
  </g>
  <g stroke="#111111" stroke-width="2" opacity="0.5">
    <line x1="380" y1="380" x2="400" y2="400"/>
    <line x1="400" y1="380" x2="380" y2="400"/>
  </g>
</svg>
